<?xml version="1.0" standalone="no"?>
<!DOCTYPE svg PUBLIC "-//W3C//DTD SVG 1.1//EN" "http://www.w3.org/Graphics/SVG/1.1/DTD/svg11.dtd" >
<!--
2013-9-30: Created.
-->
<svg>
<metadata>
Created by iconfont
</metadata>
<defs>

<font id="iconfont" horiz-adv-x="1024" >
  <font-face
    font-family="iconfont"
    font-weight="500"
    font-stretch="normal"
    units-per-em="1024"
    ascent="896"
    descent="-128"
  />
    <missing-glyph />
    
    <glyph glyph-name="right" unicode="&#58900;" d="M306.600445 769.244085c-11.993149-11.985986-12.242835-31.17707-0.557702-42.868343l339.613838-339.77552L306.042743 46.786839c-11.685133-11.69025-11.435447-30.881334 0.557702-42.868343 11.992125-11.985986 31.18321-12.226462 42.868343-0.535189l361.564779 361.745904c5.869684 5.894244 8.725732 13.678534 8.595772 21.473057 0.12996 7.794523-2.726088 15.560394-8.595772 21.431102l-361.564779 361.745904C337.783655 781.470547 318.59257 781.23007 306.600445 769.244085z"  horiz-adv-x="1024" />

    
    <glyph glyph-name="search-1-copy" unicode="&#58889;" d="M965.768-32.734l-260.335 260.335c63.966 67.345 103.424 158.106 103.424 258.253 0 207.36-168.107 375.467-375.467 375.467s-375.467-168.107-375.467-375.467c0-207.326 168.107-375.467 375.467-375.467 82.5 0 158.583 26.931 220.535 72.055l263.509-263.509c13.38-13.346 34.918-13.346 48.299 0 13.38 13.414 13.38 34.953 0.034 48.333zM433.391 171.52c-169.643 0-307.2 137.557-307.2 307.2 0 169.677 137.557 307.2 307.2 307.2 169.677 0 307.2-137.557 307.2-307.2 0-169.609-137.523-307.2-307.2-307.2z"  horiz-adv-x="1024" />

    
    <glyph glyph-name="chenggong" unicode="&#58896;" d="M512.697383 832.556039c-247.539816 0-448.208115-200.668299-448.208115-448.208115 0-247.539816 200.668299-448.208115 448.208115-448.208115 247.539816 0 448.208115 200.668299 448.208115 448.208115C960.905498 631.88774 760.237199 832.556039 512.697383 832.556039zM782.650675 509.675304 472.510102 192.815703c-1.057075-1.586125-2.233877-3.100618-3.620457-4.504594-12.155854-12.346189-31.861662-12.346189-44.025703 0L270.811334 344.734718c-12.146645 12.347213-12.146645 32.354895 0 44.683688 12.154831 12.347213 31.860638 12.347213 44.016493 0L446.411701 255.826805l292.213271 298.549583c12.165064 12.346189 31.861662 12.346189 44.025703 0C794.797319 542.0302 794.797319 522.02354 782.650675 509.675304z"  horiz-adv-x="1024" />

    
    <glyph glyph-name="xiangxiajiantou" unicode="&#58968;" d="M966.4 572.8c-9.6 9.6-25.6 9.6-35.2 0l-416-416-425.6 416c-9.6 9.6-25.6 9.6-35.2 0-9.6-9.6-9.6-25.6 0-35.2l441.6-432c9.6-9.6 25.6-9.6 35.2 0l435.2 432c9.6 12.8 9.6 25.6 0 35.2z"  horiz-adv-x="1024" />

    
    <glyph glyph-name="jiahao" unicode="&#58884;" d="M828.02 699.482C743.477 783.616 631.108 829.95 511.546 829.95c-119.558 0-231.954-46.333-316.5-130.467-84.578-84.162-131.17-196.112-131.17-315.195 0-119.112 46.592-231.028 131.135-315.189 84.548-84.133 196.946-130.467 316.507-130.467 119.56 0 231.96 46.334 316.474 130.467 84.611 84.19 131.198 196.14 131.169 315.222 0.03 119.086-46.529 231-131.141 315.162z m-92.63-347.167H543.525v-191.863c0-17.683-14.326-31.975-31.98-31.975-17.646 0-31.973 14.292-31.973 31.975V352.315H287.711c-17.648 0-31.972 14.324-31.972 31.972 0 17.653 14.324 31.98 31.972 31.98h191.863v191.86c0 17.649 14.326 31.975 31.973 31.975 17.654 0 31.98-14.326 31.98-31.974v-191.861h191.862c17.682 0 31.973-14.327 31.973-31.98 0-17.648-14.291-31.972-31.973-31.972z m0 0"  horiz-adv-x="1024" />

    
    <glyph glyph-name="liaotianduihua" unicode="&#59580;" d="M510.4 832.8c-212 0-384-172-384-384 0-184.8 131.2-340 305.6-376l80-138.4 80 138.4C764.8 110.4 894.4 264 894.4 448c0 212.8-172 384.8-384 384.8zM319.2 384c-35.2 0-64 28.8-64 64s28.8 64 64 64 64-28.8 64-64-28.8-64-64-64zM512 384c-35.2 0-64 28.8-64 64s28.8 64 64 64 64-28.8 64-64-28.8-64-64-64z m191.2 0c-35.2 0-64 28.8-64 64s28.8 64 64 64 64-28.8 64-64-28.8-64-64-64z"  horiz-adv-x="1024" />

    
    <glyph glyph-name="shaixuan" unicode="&#59046;" d="M911.36 676.864c57.344 63.488 28.672 126.976-57.344 126.976h-684.032c-86.016 0-114.688-61.44-59.392-126.976l251.904-299.008v-280.576c0-12.288 8.192-20.48 20.48-20.48s20.48 8.192 20.48 20.48v294.912l-262.144 311.296c-32.768 38.912-22.528 59.392 28.672 59.392h686.08c49.152 0 59.392-20.48 26.624-57.344l-278.528-313.344V-15.36c0-12.288 8.192-20.48 20.48-20.48s20.48 8.192 20.48 20.48v391.168l266.24 301.056z"  horiz-adv-x="1024" />

    
    <glyph glyph-name="shuoming" unicode="&#58885;" d="M911.194 744.215v-539.172L730.253 50.549h-589.66V744.215h770.601zM679.765 281.979H255.706v-76.936h424.059v76.936zM795.479 435.85H255.706v-76.936h539.773V435.85z m0 154.494H255.706v-77.559h539.773v77.559z m0 0"  horiz-adv-x="1024" />

    
    <glyph glyph-name="aixin" unicode="&#58888;" d="M846.3104 333.696c-1.5104-2.0416-3.1872-4-5.0432-5.8496l-293.056-293.056a51.2 51.2 0 0 0-72.4032 0L185.8496 324.736a51.5328 51.5328 0 0 0-5.6384 6.688C132.48 373.7984 102.4 435.7248 102.4 504.6976c0 127.7184 103.1552 231.2576 230.4 231.2576 72.384 0 136.96-33.4976 179.2-85.888 42.24 52.3904 106.816 85.888 179.2 85.888 127.2448 0 230.4-103.5392 230.4-231.2576 0-67.7504-29.0304-128.704-75.2896-170.9952z"  horiz-adv-x="1024" />

    
    <glyph glyph-name="shibai" unicode="&#58925;" d="M512-128C229.2224-128 0 101.2224 0 384S229.2224 896 512 896s512-229.2224 512-512-229.2224-512-512-512z m18.2784 322.304c-30.3104 0-54.8352-23.04-54.8352-51.456 0-28.416 24.576-51.4048 54.8352-51.4048 30.3104 0 54.8864 23.04 54.8864 51.4048 0 28.416-24.576 51.456-54.8864 51.456z m0 68.5568c30.3104 0 54.8864 23.04 54.8864 51.4048V588.5952c0 28.3648-24.576 51.4048-54.8864 51.4048-30.3104 0-54.8352-23.04-54.8352-51.4048v-274.3296c0-28.3648 24.576-51.4048 54.8352-51.4048z"  horiz-adv-x="1024" />

    
    <glyph glyph-name="gaizhang" unicode="&#58880;" d="M820.169173 286.483013H546.257733c-8.28264 0.083911-0.858554 60.08547-0.217964 66.228377 4.078899 39.139415 24.701588 58.657958 48.406476 89.327468 23.121604 29.915333 49.770544 56.882522 73.076343 86.647429 21.432125 27.374464 30.402427 68.636217 30.402427 102.966093 0 107.721397-87.656409 195.47502-195.377806 195.47502-107.720374 0-195.372689-87.573521-195.372689-195.294918 0-40.080857 12.30935-80.881099 36.423561-113.067149 23.118534-30.857798 54.035684-54.825676 77.284177-85.582167 18.585287-24.585955 31.777751-40.143279 38.57148-70.198805 3.603061-15.94618 3.803629-32.443923 2.605338-48.682769-0.469698-6.359848 0.408299-18.806321-2.743484-24.353665-3.657296-6.438643-12.172227-4.975315-20.002566-5.427616-34.595936-2.000564-69.232804 0.464581-103.836927 0.817622-31.602765 0.321318-63.206554 0.929162-94.811366 1.13587a239.617379 239.617379 0 0 1-1.918699 0.00921h-53.816696c-52.270481 0-91.888803-35.060517-91.888803-87.329975v-7.072069c0-52.269457 39.618323-92.022857 91.888803-92.022856h635.240859c52.269457 0 99.394754 39.752376 99.394754 92.022856v7.072069c-0.001023 52.269457-47.12632 87.329974-99.395778 87.329975zM854.287225 10.440026H158.31519c-18.495236 0-33.484625-14.989389-33.484625-33.484626s14.989389-33.484625 33.484625-33.484625h695.972035c18.495236 0 33.484625 14.989389 33.484626 33.484625 0 18.494213-14.989389 33.484625-33.484626 33.484626z"  horiz-adv-x="1024" />

    
    <glyph glyph-name="tongji" unicode="&#58922;" d="M229.748364-127.906909V553.239273c0 27.159273-20.875636 48.058182-45.940364 48.058182H45.963636c-25.041455 0-45.940364-22.970182-45.940363-48.058182v-681.146182h229.725091z m292.375272 0V845.754182c0 27.182545-20.875636 50.152727-45.940363 50.152727h-137.844364c-25.064727 0-45.940364-22.970182-45.940364-50.152727v-973.661091h229.725091z m292.375273 0V302.522182c0 27.159273-20.875636 50.129455-45.940364 50.129454h-137.82109c-25.064727 0-45.963636-22.970182-45.963637-50.129454v-430.429091h229.725091z m292.375273 0V553.239273c0 27.159273-20.875636 48.058182-45.940364 48.058182h-137.844363c-25.041455 0-45.940364-22.970182-45.940364-48.058182v-681.146182h229.725091z"  horiz-adv-x="1107" />

    
    <glyph glyph-name="xinjian" unicode="&#58890;" d="M658.8 587.6h129.6c11.6 0 19.2 7.6 22.8 15.2 4 7.6 0 19.2-4 26.8l-129.6 118c-7.6 7.6-19.2 7.6-26.8 4-11.6-4-15.2-11.6-15.2-22.8v-118c-3.2-15.6 8-23.2 23.2-23.2z m164-53.6h-194.4c-30.4 0-53.2 22.8-53.2 49.6V762.8c0 11.6-11.6 22.8-26.8 22.8H255.2c-45.6 0-80-34.4-80-72.4v-651.6c0-42 38-76 80-76h514.4c45.6 0 80 34.4 80 76V511.2c0 15.2-11.6 22.8-26.8 22.8z m-125.6-296.8c-7.6-7.6-15.2-11.6-26.8-11.6H560v-102.8c0-7.6-4-19.2-11.6-22.8-7.6-7.6-15.2-11.6-26.8-11.6-11.6 0-19.2 4-26.8 11.6-7.6 7.6-11.6 15.2-11.6 22.8v102.8H380.8c-11.6 0-19.2 4-26.8 11.6-7.6 7.6-11.6 15.2-11.6 22.8 0 19.2 15.2 34.4 38 34.4h110.4v102.8c0 19.2 15.2 34.4 38 34.4 19.2 0 38-15.2 38-34.4v-102.8h110.4c19.2 0 38-15.2 38-34.4-6.8-7.6-10.4-15.2-18-22.8z m0 0"  horiz-adv-x="1024" />

    
    <glyph glyph-name="jibenxinxi" unicode="&#59004;" d="M512 823.5c-22.3 0-44.6-4.2-61.6-12.7l-359-179.5c-33.9-17-33.9-44.6 0-61.6l359-179.5c17-8.5 39.3-12.7 61.7-12.7 22.3 0 44.6 4.2 61.6 12.7l359.1 179.5c33.9 17 33.9 44.6 0 61.6L573.6 810.8c-17 8.5-39.3 12.7-61.6 12.7z m0-665.4c-27.5 0-55 5.5-77 16.5L83.2 350.4c-17 8.5-23.9 29.2-15.4 46.3 8.5 17 29.2 23.9 46.3 15.4l351.7-175.9c24.2-12.1 68.2-12.1 92.5 0L910 412c17 8.5 37.7 1.6 46.2-15.4s1.6-37.7-15.4-46.2L589 174.6c-24.1-11.3-50.4-16.9-77-16.5z m0-213.6c-27.5 0-55 5.5-77 16.5L83.3 136.9c-17 8.5-23.9 29.2-15.4 46.2 8.5 17 29.2 23.9 46.2 15.4l351.7-175.9c24.2-12.1 68.2-12.1 92.5 0L910 198.5c17 8.5 37.7 1.6 46.2-15.4s1.6-37.7-15.4-46.2L589-39c-21.9-11-49.4-16.5-77-16.5z"  horiz-adv-x="1024" />

    
    <glyph glyph-name="chanpinticheng" unicode="&#58902;" d="M405.942857 623.542857l-5.485714 9.142857c-3.657143 7.314286-9.142857 14.628571-12.8 20.114286-3.657143 5.485714-7.314286 12.8-10.971429 18.285714-5.485714 7.314286-9.142857 12.8-10.971428 18.285715-5.485714 7.314286-10.971429 14.628571-18.285715 21.942857-7.314286 7.314286-14.628571 12.8-21.942857 18.285714-10.971429 7.314286-18.285714 18.285714-23.771428 31.085714-5.485714 16.457143 0 32.914286 14.628571 45.714286 7.314286 5.485714 14.628571 7.314286 23.771429 7.314286h5.485714c7.314286 0 14.628571-1.828571 20.114286-3.657143 5.485714-1.828571 12.8-3.657143 18.285714-5.485714h7.314286c7.314286 0 9.142857 1.828571 10.971428 3.657142 5.485714 5.485714 14.628571 12.8 25.6 20.114286 9.142857 5.485714 20.114286 9.142857 29.257143 9.142857h9.142857c14.628571-1.828571 25.6-7.314286 32.914286-14.628571l5.485714-5.485714c1.828571-1.828571 5.485714-3.657143 7.314286-5.485715h1.828571c1.828571 1.828571 3.657143 3.657143 7.314286 5.485715 9.142857 9.142857 18.285714 14.628571 27.428572 18.285714 5.485714 1.828571 10.971429 3.657143 16.457142 3.657143 9.142857 0 16.457143-1.828571 27.428572-5.485715 7.314286-1.828571 14.628571-5.485714 20.114286-10.971428l10.971428-9.142857c1.828571-1.828571 5.485714-3.657143 7.314286-5.485715 0 0 1.828571-1.828571 7.314286-1.828571 5.485714 0 7.314286 0 9.142857 1.828571 5.485714 1.828571 9.142857 3.657143 12.8 5.485715 5.485714 1.828571 10.971429 3.657143 16.457143 3.657143h5.485714c5.485714 0 10.971429-1.828571 16.457143-3.657143 14.628571-5.485714 20.114286-14.628571 23.771428-20.114286 3.657143-7.314286 5.485714-16.457143 3.657143-25.6-1.828571-7.314286-5.485714-14.628571-9.142857-21.942857-5.485714-7.314286-10.971429-12.8-18.285714-16.457143-9.142857-5.485714-18.285714-12.8-21.942857-18.285714-5.485714-7.314286-12.8-16.457143-18.285715-23.771429-3.657143-3.657143-5.485714-9.142857-9.142857-14.628571-3.657143-5.485714-7.314286-10.971429-9.142857-16.457143-3.657143-7.314286-9.142857-14.628571-12.8-21.942857l-5.485714-7.314286H405.942857zM566.857143 819.2c5.485714 0 12.8-1.828571 20.114286-5.485714 5.485714-1.828571 10.971429-3.657143 14.628571-7.314286 3.657143-3.657143 7.314286-7.314286 10.971429-9.142857 3.657143-3.657143 7.314286-5.485714 10.971428-7.314286 3.657143-1.828571 9.142857-3.657143 14.628572-3.657143s10.971429 1.828571 16.457142 3.657143c3.657143 1.828571 9.142857 3.657143 12.8 5.485714 3.657143 1.828571 7.314286 1.828571 12.8 3.657143h3.657143c3.657143 0 7.314286 0 10.971429-1.828571 5.485714-1.828571 10.971429-5.485714 12.8-10.971429 1.828571-5.485714 3.657143-9.142857 1.828571-14.628571-1.828571-5.485714-3.657143-9.142857-7.314285-14.628572-3.657143-7.314286-7.314286-12.8-12.8-14.628571-10.971429-7.314286-20.114286-14.628571-27.428572-23.771429-5.485714-7.314286-12.8-16.457143-18.285714-25.6-3.657143-3.657143-7.314286-9.142857-10.971429-14.628571l-10.971428-16.457143c-3.657143-7.314286-7.314286-12.8-12.8-20.114286H416.914286c-3.657143 7.314286-9.142857 14.628571-12.8 21.942858-3.657143 5.485714-7.314286 12.8-12.8 18.285714l-10.971429 16.457143c-5.485714 9.142857-12.8 18.285714-21.942857 25.6-7.314286 7.314286-14.628571 12.8-23.771429 18.285714-5.485714 7.314286-10.971429 14.628571-14.628571 23.771429-3.657143 9.142857 0 18.285714 9.142857 25.6 3.657143 1.828571 7.314286 3.657143 12.8 3.657142h3.657143c5.485714 0 10.971429-1.828571 18.285714-3.657142 5.485714-1.828571 12.8-3.657143 18.285715-5.485715 3.657143-1.828571 7.314286-1.828571 10.971428-1.828571h5.485714c9.142857 1.828571 14.628571 5.485714 20.114286 9.142857 3.657143 5.485714 10.971429 10.971429 21.942857 16.457143 5.485714 3.657143 12.8 5.485714 20.114286 5.485714h7.314286c9.142857-1.828571 18.285714-5.485714 21.942857-9.142857 1.828571-3.657143 5.485714-5.485714 7.314286-7.314286 3.657143-1.828571 5.485714-3.657143 9.142857-5.485714 3.657143-1.828571 7.314286-5.485714 10.971428-7.314286 1.828571 0 3.657143 0 5.485715 1.828572 3.657143 1.828571 9.142857 7.314286 14.628571 12.8 7.314286 7.314286 14.628571 10.971429 21.942857 14.628571 0 1.828571 3.657143 3.657143 7.314286 3.657143m0 36.571429c-9.142857 0-16.457143-1.828571-23.771429-5.485715-9.142857-3.657143-20.114286-10.971429-29.257143-18.285714-10.971429 10.971429-25.6 16.457143-42.057142 20.114286-3.657143 0-9.142857 1.828571-12.8 1.828571-14.628571 0-27.428571-3.657143-40.228572-10.971428-12.8-9.142857-21.942857-14.628571-29.257143-21.942858-5.485714 1.828571-10.971429 3.657143-18.285714 5.485715-9.142857 1.828571-16.457143 3.657143-23.771429 5.485714h-7.314285c-12.8 0-23.771429-3.657143-32.914286-10.971429-20.114286-16.457143-29.257143-40.228571-20.114286-64 5.485714-16.457143 16.457143-31.085714 31.085715-42.057142 5.485714-5.485714 12.8-10.971429 20.114285-16.457143 5.485714-5.485714 10.971429-10.971429 14.628572-18.285715 3.657143-5.485714 7.314286-10.971429 12.8-18.285714l10.971428-16.457143c3.657143-7.314286 9.142857-12.8 12.8-20.114285l10.971429-18.285715h232.228571l7.314286 14.628572c5.485714 7.314286 9.142857 14.628571 14.628571 23.771428 1.828571 3.657143 5.485714 9.142857 9.142858 14.628572 3.657143 5.485714 7.314286 9.142857 9.142857 14.628571 5.485714 7.314286 10.971429 16.457143 18.285714 23.771429 1.828571 3.657143 7.314286 9.142857 18.285714 14.628571 9.142857 5.485714 16.457143 12.8 23.771429 21.942857 5.485714 9.142857 10.971429 18.285714 12.8 29.257143 1.828571 12.8 0 25.6-5.485714 36.571429-3.657143 9.142857-12.8 21.942857-32.914286 29.257143h-3.657143c-7.314286 1.828571-16.457143 3.657143-23.771429 3.657142h-9.142857c-7.314286-1.828571-12.8-3.657143-20.114285-5.485714-3.657143-1.828571-9.142857-3.657143-12.8-5.485714h-1.828572l-1.828571 1.828571-10.971429 9.142857c-7.314286 7.314286-16.457143 12.8-27.428571 14.628572-9.142857 5.485714-20.114286 7.314286-29.257143 7.314286zM512-53.028571c-51.2 0-96.914286 7.314286-137.142857 21.942857-40.228571 14.628571-74.971429 34.742857-102.4 58.514285-27.428571 23.771429-51.2 51.2-67.657143 80.457143-16.457143 29.257143-27.428571 58.514286-32.914286 87.771429-5.485714 32.914286-7.314286 64-1.828571 93.257143 3.657143 29.257143 12.8 58.514286 23.771428 84.114285 10.971429 25.6 25.6 49.371429 42.057143 71.314286 16.457143 21.942857 34.742857 40.228571 54.857143 58.514286 16.457143 14.628571 31.085714 27.428571 43.885714 40.228571 12.8 12.8 23.771429 23.771429 31.085715 32.914286 10.971429 12.8 20.114286 23.771429 27.428571 32.914286l5.485714 7.314285h228.571429l5.485714-7.314285c7.314286-9.142857 16.457143-20.114286 27.428572-31.085715 9.142857-10.971429 20.114286-21.942857 34.742857-34.742857 12.8-12.8 29.257143-27.428571 45.714286-42.057143 16.457143-14.628571 32.914286-29.257143 47.542857-47.542857 16.457143-18.285714 31.085714-42.057143 43.885714-65.828571 12.8-25.6 21.942857-54.857143 27.428571-87.771429 5.485714-32.914286 3.657143-69.485714-1.828571-109.714285-5.485714-32.914286-18.285714-65.828571-34.742857-95.085715-18.285714-29.257143-42.057143-56.685714-71.314286-78.628571-29.257143-21.942857-64-38.4-102.4-51.2-42.057143-10.971429-87.771429-18.285714-137.142857-18.285714zM616.228571 599.771429c7.314286-9.142857 16.457143-20.114286 27.428572-32.914286 9.142857-10.971429 20.114286-21.942857 34.742857-36.571429 14.628571-12.8 29.257143-27.428571 47.542857-42.057143 14.628571-12.8 31.085714-29.257143 45.714286-45.714285 16.457143-18.285714 29.257143-38.4 42.057143-62.171429 10.971429-23.771429 20.114286-51.2 25.6-82.285714 5.485714-31.085714 3.657143-65.828571-1.828572-104.228572-5.485714-31.085714-16.457143-60.342857-32.914285-87.771428s-38.4-51.2-65.828572-73.142857c-27.428571-20.114286-60.342857-36.571429-98.742857-49.371429-38.4-12.8-80.457143-18.285714-128-18.285714-49.371429 0-93.257143 7.314286-131.657143 21.942857-38.4 14.628571-69.485714 32.914286-96.914286 54.857143s-47.542857 47.542857-64 74.971428c-16.457143 27.428571-25.6 54.857143-31.085714 82.285715-5.485714 31.085714-5.485714 60.342857-1.828571 87.771428 3.657143 27.428571 10.971429 54.857143 21.942857 78.628572 10.971429 23.771429 23.771429 47.542857 40.228571 67.657143 16.457143 20.114286 32.914286 38.4 51.2 54.857142 16.457143 14.628571 31.085714 27.428571 43.885715 40.228572 12.8 12.8 23.771429 23.771429 32.914285 34.742857 10.971429 10.971429 20.114286 23.771429 27.428572 32.914286h212.114285m18.285715 40.228571H387.657143l-10.971429-14.628571c-7.314286-9.142857-16.457143-20.114286-25.6-31.085715-7.314286-9.142857-18.285714-20.114286-29.257143-32.914285-12.8-12.8-27.428571-25.6-42.057142-40.228572-23.771429-18.285714-42.057143-38.4-60.342858-60.342857-18.285714-23.771429-32.914286-47.542857-43.885714-74.971428-10.971429-27.428571-20.114286-58.514286-23.771428-89.6-5.485714-31.085714-3.657143-65.828571 1.828571-100.571429 5.485714-31.085714 18.285714-62.171429 34.742857-95.085714 18.285714-31.085714 42.057143-60.342857 71.314286-85.942857 29.257143-25.6 65.828571-45.714286 107.885714-60.342858 42.057143-14.628571 89.6-23.771429 144.457143-23.771428 51.2 0 98.742857 7.314286 140.8 20.114286 42.057143 12.8 78.628571 31.085714 107.885714 54.857142 31.085714 23.771429 56.685714 51.2 74.971429 82.285715 18.285714 31.085714 31.085714 65.828571 38.4 100.571428 7.314286 42.057143 7.314286 80.457143 1.828571 115.2-5.485714 34.742857-14.628571 65.828571-27.428571 93.257143-12.8 27.428571-29.257143 49.371429-47.542857 69.485714-16.457143 18.285714-32.914286 34.742857-49.371429 49.371429-16.457143 14.628571-32.914286 27.428571-45.714286 40.228571-12.8 12.8-23.771429 23.771429-32.914285 34.742858-10.971429 10.971429-18.285714 20.114286-25.6 29.257142l-12.8 20.114286zM599.771429 221.257143c18.285714 0 25.6-7.314286 25.6-20.114286 0-5.485714-1.828571-10.971429-5.485715-12.8s-9.142857-3.657143-14.628571-3.657143h-65.828572v-18.285714c0-5.485714-1.828571-10.971429-7.314285-16.457143-5.485714-5.485714-10.971429-7.314286-18.285715-7.314286s-14.628571 1.828571-18.285714 5.485715c-5.485714 3.657143-7.314286 9.142857-9.142857 18.285714v18.285714h-64c-5.485714 0-10.971429 1.828571-14.628571 5.485715-3.657143 1.828571-5.485714 7.314286-5.485715 10.971428 0 5.485714 1.828571 10.971429 5.485715 12.8 3.657143 3.657143 9.142857 5.485714 14.628571 5.485714h64v32.914286h-64c-5.485714 0-10.971429 1.828571-14.628571 5.485714-3.657143 3.657143-5.485714 7.314286-5.485715 12.8 0 5.485714 1.828571 9.142857 5.485715 14.628572 3.657143 3.657143 9.142857 7.314286 14.628571 7.314286h64l1.828571 20.114285-31.085714 31.085715c-7.314286 9.142857-16.457143 16.457143-21.942857 23.771428l-14.628571 14.628572c-3.657143 3.657143-5.485714 9.142857-9.142858 14.628571-1.828571 7.314286-1.828571 12.8 3.657143 20.114286 5.485714 5.485714 12.8 7.314286 20.114286 5.485714 7.314286-3.657143 14.628571-5.485714 20.114286-10.971429 1.828571-3.657143 7.314286-7.314286 12.8-14.628571l20.114285-20.114286 25.6-25.6c10.971429 9.142857 20.114286 18.285714 29.257143 27.428572 7.314286 7.314286 14.628571 12.8 21.942857 20.114285 7.314286 7.314286 12.8 10.971429 16.457143 12.8 5.485714 5.485714 10.971429 7.314286 18.285715 7.314286s12.8-3.657143 16.457142-9.142857c7.314286-9.142857 5.485714-20.114286-9.142857-32.914286l-16.457143-16.457143c-7.314286-7.314286-14.628571-14.628571-21.942857-23.771428l-29.257143-29.257143v-18.285714h60.342858c9.142857 0 14.628571-1.828571 18.285714-5.485715 3.657143-3.657143 5.485714-9.142857 5.485714-12.8 0-5.485714-1.828571-10.971429-5.485714-14.628571-3.657143-3.657143-9.142857-5.485714-18.285714-5.485714l-60.342858-1.828572-1.828571-31.085714h62.171429z"  horiz-adv-x="1024" />

    
    <glyph glyph-name="chanpinyuyue" unicode="&#58903;" d="M877.714286 749.714286c20.114286 0 36.571429-16.457143 36.571428-36.571429v-731.428571c0-20.114286-16.457143-36.571429-36.571428-36.571429H146.285714c-20.114286 0-36.571429 16.457143-36.571428 36.571429V713.142857c0 20.114286 16.457143 36.571429 36.571428 36.571429h731.428572m0 36.571428H146.285714c-40.228571 0-73.142857-32.914286-73.142857-73.142857v-731.428571c0-40.228571 32.914286-73.142857 73.142857-73.142857h731.428572c40.228571 0 73.142857 32.914286 73.142857 73.142857V713.142857c0 40.228571-32.914286 73.142857-73.142857 73.142857zM146.285714-73.142857c-31.085714 0-54.857143 23.771429-54.857143 54.857143V530.285714h841.142858v-548.571428c0-31.085714-23.771429-54.857143-54.857143-54.857143H146.285714zM914.285714 512v-530.285714c0-20.114286-16.457143-36.571429-36.571428-36.571429H146.285714c-20.114286 0-36.571429 16.457143-36.571428 36.571429V512h804.571428m36.571429 36.571429H73.142857v-566.857143c0-40.228571 32.914286-73.142857 73.142857-73.142857h731.428572c40.228571 0 73.142857 32.914286 73.142857 73.142857V548.571429zM292.571429 694.857143c-10.971429 0-18.285714 7.314286-18.285715 18.285714V822.857143c0 10.971429 7.314286 18.285714 18.285715 18.285714s18.285714-7.314286 18.285714-18.285714v-109.714286c0-10.971429-7.314286-18.285714-18.285714-18.285714zM292.571429 859.428571c-20.114286 0-36.571429-16.457143-36.571429-36.571428v-109.714286c0-20.114286 16.457143-36.571429 36.571429-36.571428s36.571429 16.457143 36.571428 36.571428V822.857143c0 20.114286-16.457143 36.571429-36.571428 36.571428zM749.714286 694.857143c-10.971429 0-18.285714 7.314286-18.285715 18.285714V822.857143c0 10.971429 7.314286 18.285714 18.285715 18.285714s18.285714-7.314286 18.285714-18.285714v-109.714286c0-10.971429-7.314286-18.285714-18.285714-18.285714zM749.714286 859.428571c-20.114286 0-36.571429-16.457143-36.571429-36.571428v-109.714286c0-20.114286 16.457143-36.571429 36.571429-36.571428s36.571429 16.457143 36.571428 36.571428V822.857143c0 20.114286-16.457143 36.571429-36.571428 36.571428zM201.142857 402.285714h73.142857v-73.142857h-73.142857zM256 384v-36.571429h-36.571429v36.571429h36.571429m36.571429 36.571429h-109.714286v-109.714286h109.714286v109.714286zM475.428571 402.285714h73.142858v-73.142857h-73.142858zM530.285714 384v-36.571429h-36.571428v36.571429h36.571428m36.571429 36.571429h-109.714286v-109.714286h109.714286v109.714286zM201.142857 201.142857h73.142857v-73.142857h-73.142857zM256 182.857143v-36.571429h-36.571429v36.571429h36.571429m36.571429 36.571428h-109.714286v-109.714285h109.714286v109.714285zM475.428571 201.142857h73.142858v-73.142857h-73.142858zM530.285714 182.857143v-36.571429h-36.571428v36.571429h36.571428m36.571429 36.571428h-109.714286v-109.714285h109.714286v109.714285zM731.428571 402.285714h73.142858v-73.142857h-73.142858zM786.285714 384v-36.571429h-36.571428v36.571429h36.571428m36.571429 36.571429h-109.714286v-109.714286h109.714286v109.714286z"  horiz-adv-x="1024" />

    
    <glyph glyph-name="kehudangan" unicode="&#58904;" d="M96.914286 400.457143L184.685714 749.714286c5.485714 25.6 27.428571 43.885714 53.028572 43.885714h548.571428c25.6 0 45.714286-18.285714 53.028572-43.885714l87.771428-349.257143H96.914286zM786.285714 775.314286c16.457143 0 31.085714-12.8 34.742857-29.257143L903.314286 420.571429H120.685714L201.142857 746.057143c3.657143 16.457143 18.285714 29.257143 34.742857 29.257143H786.285714m0 36.571428H237.714286c-32.914286 0-62.171429-23.771429-71.314286-56.685714L73.142857 382.171429h877.714286L857.6 753.371429c-9.142857 34.742857-36.571429 58.514286-71.314286 58.514285zM146.285714-18.285714c-31.085714 0-54.857143 23.771429-54.857143 53.028571V376.685714h841.142858v-341.942857c0-29.257143-23.771429-53.028571-54.857143-53.028571H146.285714z m100.571429 142.628571h512v126.171429h-512v-126.171429zM914.285714 358.4v-323.657143c0-20.114286-16.457143-34.742857-36.571428-34.742857H146.285714c-20.114286 0-36.571429 16.457143-36.571428 34.742857V358.4h804.571428M228.571429 106.057143h548.571428v162.742857h-548.571428v-162.742857M950.857143 394.971429H73.142857v-360.228572C73.142857-3.657143 106.057143-36.571429 146.285714-36.571429h731.428572c40.228571 0 73.142857 32.914286 73.142857 71.314286V394.971429zM265.142857 142.628571v89.6h475.428572v-89.6h-475.428572zM256 676.571429h512v-36.571429H256zM292.571429 603.428571h438.857142v-36.571428H292.571429z"  horiz-adv-x="1024" />

    
    <glyph glyph-name="kehujixi" unicode="&#58905;" d="M886.857143 274.285714l-71.314286-109.714285h56.685714v-23.771429H804.571429v-34.742857h67.657142v-23.771429H804.571429v-49.371428h-32.914286v49.371428h-69.485714v23.771429h69.485714v34.742857h-69.485714V164.571429h58.514285l-71.314285 109.714285h38.4l49.371428-85.942857c3.657143-7.314286 7.314286-12.8 9.142857-18.285714 1.828571 5.485714 5.485714 10.971429 9.142857 20.114286l51.2 84.114285h40.228572zM886.857143 274.285714h-36.571429l-51.2-84.114285c-5.485714-9.142857-7.314286-14.628571-9.142857-20.114286-1.828571 5.485714-5.485714 12.8-9.142857 18.285714L729.6 274.285714h-38.4l71.314286-109.714285h-58.514286v-23.771429h69.485714v-34.742857h-69.485714v-23.771429h69.485714v-49.371428H804.571429v49.371428h67.657142v23.771429H804.571429v34.742857h67.657142V164.571429h-56.685714l71.314286 109.714285zM681.654857 680.704l51.712 51.730286 129.316572-129.28-51.712-51.730286zM733.257143 707.657143l104.228571-104.228572-25.6-25.6-104.228571 104.228572 25.6 25.6m0 51.2l-76.8-76.8 155.428571-155.428572 76.8 76.8-155.428571 155.428572zM182.857143 54.857143v85.942857l85.942857-85.942857zM201.142857 96.914286l23.771429-23.771429H201.142857v23.771429m-36.571428 87.771428V36.571429h148.114285L164.571429 184.685714zM213.979429 213.613714l426.678857 426.678857 129.298285-129.298285L343.277714 84.297143zM640 614.4l104.228571-104.228571L343.771429 109.714286l-104.228572 104.228571L640 614.4m0 51.2L188.342857 213.942857l155.428572-155.428571 451.657142 451.657143-155.428571 155.428571zM153.6 559.542857l162.742857 164.571429 149.942857-149.942857-107.885714-109.714286-1.828571 1.828571 107.885714 107.885715-148.114286 148.114285-160.914286-162.742857 135.314286-133.485714v-1.828572zM316.342857 749.714286l-27.428571-27.428572-133.485715-135.314285L128 559.542857l162.742857-160.914286 27.428572 27.428572-137.142858 133.485714 135.314286 135.314286 120.685714-120.685714-106.057142-107.885715 27.428571-27.428571 133.485714 135.314286-148.114285 148.114285L316.342857 749.714286zM307.2 519.314286l3.657143-3.657143-3.657143 3.657143z m54.857143 47.542857l-3.657143-3.657143 3.657143 3.657143z m-102.4 0z m51.2 51.2l3.657143-3.657143-3.657143 3.657143zM310.857143 643.657143L234.057143 566.857143l78.628571-76.8 76.8 78.628571-78.628571 74.971429z m0-102.4L285.257143 566.857143l25.6 25.6 25.6-25.6-25.6-25.6z"  horiz-adv-x="1024" />

    
    <glyph glyph-name="hetongguanli" unicode="&#58906;" d="M182.857143-36.571429c-31.085714 0-54.857143 23.771429-54.857143 54.857143V749.714286c0 31.085714 23.771429 54.857143 54.857143 54.857143h493.714286v-219.428572h219.428571v-566.857143c0-31.085714-23.771429-54.857143-54.857143-54.857143H182.857143zM658.285714 786.285714v-219.428571h219.428572v-548.571429c0-20.114286-16.457143-36.571429-36.571429-36.571428H182.857143c-20.114286 0-36.571429 16.457143-36.571429 36.571428V749.714286c0 20.114286 16.457143 36.571429 36.571429 36.571428h475.428571m36.571429 36.571429H182.857143C142.628571 822.857143 109.714286 789.942857 109.714286 749.714286v-731.428572c0-40.228571 32.914286-73.142857 73.142857-73.142857h658.285714c40.228571 0 73.142857 32.914286 73.142857 73.142857V603.428571H694.857143V822.857143zM749.714286 658.285714V778.971429l120.685714-120.685715zM768 735.085714l58.514286-58.514285H768V735.085714M731.428571 822.857143v-182.857143h182.857143L731.428571 822.857143zM420.571429 466.285714c0-9.142857 7.314286-16.457143 14.628571-16.457143 3.657143-42.057143 36.571429-84.114286 76.8-84.114285s73.142857 42.057143 76.8 84.114285c9.142857 0 14.628571 7.314286 14.628571 16.457143 0 7.314286-3.657143 12.8-9.142857 14.628572 3.657143 9.142857 5.485714 20.114286 5.485715 29.257143 0 51.2-38.4 93.257143-87.771429 93.257142-47.542857 0-87.771429-42.057143-87.771429-93.257142 0-10.971429 1.828571-20.114286 5.485715-29.257143-5.485714-3.657143-9.142857-9.142857-9.142857-14.628572zM325.485714 230.4h371.2c3.657143 0 7.314286 3.657143 7.314286 7.314286v29.257143c0 1.828571 0 3.657143-1.828571 5.485714-36.571429 34.742857-78.628571 58.514286-126.171429 71.314286-1.828571 0-1.828571 1.828571-3.657143 1.828571h-3.657143c-1.828571 0-1.828571 0-3.657143-1.828571-14.628571-7.314286-32.914286-12.8-53.028571-12.8-20.114286 0-38.4 3.657143-53.028571 12.8-1.828571 0-1.828571 1.828571-3.657143 1.828571h-3.657143-1.828572c-47.542857-10.971429-93.257143-36.571429-129.828571-71.314286-1.828571-1.828571-1.828571-3.657143-1.828571-5.485714V237.714286c0-3.657143 3.657143-7.314286 7.314285-7.314286zM299.885714 124.342857h426.057143c7.314286 0 14.628571 5.485714 14.628572 14.628572 0 7.314286-5.485714 14.628571-14.628572 14.628571H299.885714c-7.314286 0-14.628571-5.485714-14.628571-14.628571s5.485714-14.628571 14.628571-14.628572z"  horiz-adv-x="1024" />

    
    <glyph glyph-name="kehugenjin" unicode="&#58907;" d="M731.428571 146.285714m-164.571428 0a164.571429 164.571429 0 1 1 329.142857 0 164.571429 164.571429 0 1 1-329.142857 0ZM731.428571 292.571429c80.457143 0 146.285714-65.828571 146.285715-146.285715s-65.828571-146.285714-146.285715-146.285714-146.285714 65.828571-146.285714 146.285714 65.828571 146.285714 146.285714 146.285715m0 36.571428c-100.571429 0-182.857143-82.285714-182.857142-182.857143s82.285714-182.857143 182.857142-182.857143 182.857143 82.285714 182.857143 182.857143-82.285714 182.857143-182.857143 182.857143zM186.514286 54.857143C155.428571 54.857143 128 78.628571 128 109.714286V658.285714c0 10.971429 9.142857 18.285714 20.114286 18.285715h135.314285V749.714286c0 10.971429 9.142857 18.285714 20.114286 18.285714h270.628572c10.971429 0 20.114286-7.314286 20.114285-18.285714v-73.142857h135.314286c10.971429 0 20.114286-7.314286 20.114286-18.285715v-256h-18.285715c-140.8 0-256-115.2-256-256 0-31.085714 5.485714-62.171429 16.457143-91.428571H186.514286zM574.171429 749.714286h1.828571v-91.428572H731.428571v-237.714285c-151.771429 0-274.285714-122.514286-274.285714-274.285715 0-25.6 3.657143-49.371429 9.142857-73.142857H186.514286C164.571429 73.142857 146.285714 89.6 146.285714 109.714286V658.285714h155.428572V749.714286h272.457143m0 36.571428H303.542857c-21.942857 0-38.4-16.457143-38.4-36.571428v-54.857143H148.114286c-21.942857 0-38.4-16.457143-38.4-36.571429v-548.571428c0-40.228571 34.742857-73.142857 76.8-73.142857h332.8c-16.457143 32.914286-27.428571 69.485714-27.428572 109.714285 0 131.657143 106.057143 237.714286 237.714286 237.714286 12.8 0 23.771429-1.828571 36.571429-3.657143V658.285714c0 20.114286-16.457143 36.571429-38.4 36.571429h-117.028572V749.714286c1.828571 20.114286-14.628571 36.571429-36.571428 36.571428zM841.142857 128h-91.428571v91.428571c0 9.142857-9.142857 18.285714-18.285715 18.285715s-18.285714-9.142857-18.285714-18.285715v-109.714285c0-9.142857 9.142857-18.285714 18.285714-18.285715h109.714286c9.142857 0 18.285714 9.142857 18.285714 18.285715s-9.142857 18.285714-18.285714 18.285714zM256 566.857143h365.714286v-36.571429H256zM256 475.428571h292.571429v-36.571428H256zM256 384h219.428571v-36.571429H256z"  horiz-adv-x="1024" />

    
    <glyph glyph-name="shichanghuodong" unicode="&#58908;" d="M727.771429 440.685714c-45.714286 0-85.942857 16.457143-124.342858 32.914286-40.228571 16.457143-80.457143 32.914286-126.171428 32.914286-49.371429 0-98.742857-20.114286-149.942857-62.171429L299.885714 740.571429C349.257143 771.657143 394.971429 786.285714 435.2 786.285714c45.714286 0 82.285714-18.285714 118.857143-34.742857 34.742857-16.457143 71.314286-34.742857 113.371428-34.742857 40.228571 0 82.285714 16.457143 126.171429 49.371429l56.685714-287.085715c-42.057143-25.6-82.285714-38.4-122.514285-38.4zM435.2 768c42.057143 0 74.971429-16.457143 111.542857-32.914286 36.571429-18.285714 74.971429-36.571429 122.514286-36.571428 38.4 0 74.971429 12.8 113.371428 36.571428l49.371429-245.028571c-36.571429-20.114286-69.485714-29.257143-102.4-29.257143-42.057143 0-78.628571 14.628571-118.857143 31.085714-40.228571 16.457143-84.114286 34.742857-133.485714 34.742857-45.714286 0-89.6-14.628571-135.314286-45.714285L320 731.428571c42.057143 23.771429 80.457143 36.571429 115.2 36.571429m0 36.571429c-42.057143 0-91.428571-14.628571-155.428571-54.857143L310.857143 405.942857c65.828571 62.171429 117.028571 80.457143 164.571428 80.457143 85.942857 0 155.428571-65.828571 250.514286-65.828571 42.057143 0 87.771429 12.8 144.457143 47.542857L804.571429 797.257143C747.885714 747.885714 704 731.428571 665.6 731.428571c-76.8 1.828571-135.314286 73.142857-230.4 73.142858zM281.6-34.742857c-14.628571 0-25.6 10.971429-27.428571 25.6L184.685714 744.228571c0 7.314286 1.828571 14.628571 5.485715 20.114286 5.485714 5.485714 10.971429 9.142857 18.285714 9.142857h1.828571c14.628571 0 25.6-10.971429 27.428572-25.6l69.485714-755.2c0-7.314286-1.828571-14.628571-5.485714-20.114285-5.485714-5.485714-10.971429-9.142857-18.285715-9.142858 0 1.828571 0 1.828571-1.828571 1.828572zM212.114286 757.028571c5.485714 0 9.142857-3.657143 9.142857-9.142857l69.485714-755.2c0-3.657143-1.828571-5.485714-1.828571-7.314285-1.828571-1.828571-3.657143-3.657143-5.485715-3.657143h-1.828571c-5.485714 0-9.142857 3.657143-9.142857 9.142857L202.971429 746.057143c0 3.657143 1.828571 5.485714 1.828571 7.314286 1.828571 1.828571 3.657143 3.657143 7.314286 3.657142m0 36.571429h-3.657143C182.857143 791.771429 164.571429 768 166.4 744.228571l69.485714-755.2c1.828571-23.771429 21.942857-42.057143 45.714286-42.057142h3.657143c25.6 1.828571 43.885714 25.6 42.057143 49.371428L257.828571 751.542857c-1.828571 23.771429-21.942857 42.057143-45.714285 42.057143z"  horiz-adv-x="1024" />

    
    <glyph glyph-name="lishiyeji" unicode="&#58909;" d="M190.171429 621.714286h636.342857v-482.742857H190.171429zM223.085714 5.485714c7.314286-7.314286 18.285714-7.314286 25.6 0l126.171429 126.171429c7.314286 7.314286 7.314286 18.285714 0 25.6-7.314286 7.314286-18.285714 7.314286-25.6 0l-126.171429-126.171429c-7.314286-5.485714-7.314286-18.285714 0-25.6zM789.942857 5.485714c-7.314286-7.314286-18.285714-7.314286-25.6 0l-126.171428 126.171429c-7.314286 7.314286-7.314286 18.285714 0 25.6 7.314286 7.314286 18.285714 7.314286 25.6 0l126.171428-126.171429c7.314286-5.485714 7.314286-18.285714 0-25.6zM341.942857 760.685714h329.142857v-36.571428h-329.142857zM671.085714 760.685714h-329.142857v-36.571428h329.142857v36.571428zM610.742857 473.6l-53.028571-93.257143-122.514286 69.485714-9.142857-18.285714v1.828572l-54.857143-85.942858 31.085714-20.114285 45.714286 73.142857 91.428571-51.2v-1.828572l31.085715-18.285714 71.314285 126.171429zM188.342857 621.714286h702.171429-702.171429v-475.428572zM908.8 640h-804.571429v-36.571429h65.828572v-438.857142h-18.285714v-36.571429h713.142857v36.571429h-16.457143V603.428571h62.171428v36.571429h-1.828571zM206.628571 164.571429V603.428571h603.428572v-438.857142h-603.428572z"  horiz-adv-x="1024" />

    
    <glyph glyph-name="kehutousu" unicode="&#58910;" d="M649.142857 592.457143V731.428571l113.371429-138.971428zM667.428571 680.228571l56.685715-69.485714h-56.685715v69.485714m-29.257142 89.6c-3.657143 0-7.314286-1.828571-7.314286-7.314285v-182.857143c0-3.657143 3.657143-7.314286 7.314286-7.314286H786.285714c5.485714 0 9.142857 7.314286 5.485715 10.971429L643.657143 768c-1.828571 1.828571-3.657143 1.828571-5.485714 1.828571zM869.558857 233.691429l3.931429 3.84 31.890285-32.749715-3.931428-3.84zM872.228571 257.828571c-3.657143 0-5.485714-1.828571-9.142857-3.657142l-12.8-10.971429c-5.485714-5.485714-5.485714-12.8 0-16.457143l40.228572-42.057143c1.828571-1.828571 5.485714-3.657143 9.142857-3.657143s5.485714 1.828571 9.142857 3.657143l12.8 10.971429c5.485714 5.485714 5.485714 12.8 0 16.457143l-40.228571 42.057143c-1.828571 1.828571-5.485714 3.657143-9.142858 3.657142zM691.145143 60.123429l136.118857 132.809142 31.926857-32.731428-136.118857-132.790857zM828.342857 168.228571l7.314286-7.314285-109.714286-107.885715-7.314286 7.314286 109.714286 107.885714m0 47.542858c-1.828571 0-5.485714 0-7.314286-1.828572l-155.428571-151.771428 58.514286-58.514286 155.428571 151.771428c3.657143 3.657143 3.657143 10.971429 0 16.457143l-43.885714 43.885715c-1.828571-1.828571-5.485714 0-7.314286 0zM671.085714 27.428571l20.114286-20.114285-32.914286-12.8zM665.6 60.342857l-34.742857-82.285714 9.142857-9.142857 84.114286 32.914285-58.514286 58.514286zM192 45.714286c-36.571429 0-64 29.257143-64 64V709.485714c0 36.571429 29.257143 64 64 64h385.828571v-223.085714c0-14.628571 12.8-27.428571 27.428572-27.428571h164.571428c9.142857 0 16.457143-7.314286 16.457143-16.457143v-190.171429c0-27.428571-10.971429-54.857143-32.914285-74.971428L557.714286 53.028571c-5.485714-5.485714-10.971429-7.314286-18.285715-7.314285h-347.428571zM559.542857 755.2v-204.8c0-25.6 20.114286-45.714286 45.714286-45.714286H768v-188.342857c0-23.771429-9.142857-45.714286-27.428571-62.171428L544.914286 65.828571c-1.828571-1.828571-3.657143-1.828571-5.485715-1.828571h-347.428571C166.4 64 146.285714 84.114286 146.285714 109.714286V709.485714c0 25.6 20.114286 45.714286 45.714286 45.714286h367.542857m27.428572 36.571429H192C146.285714 791.771429 109.714286 755.2 109.714286 709.485714V109.714286c0-45.714286 36.571429-82.285714 82.285714-82.285715h347.428571c10.971429 0 21.942857 3.657143 31.085715 12.8l195.657143 186.514286c23.771429 23.771429 38.4 54.857143 38.4 87.771429V506.514286c0 18.285714-14.628571 34.742857-34.742858 34.742857h-164.571428c-5.485714 0-9.142857 3.657143-9.142857 9.142857V782.628571c0 5.485714-3.657143 9.142857-9.142857 9.142858zM256 475.428571h296.228571v-36.571428H256zM256 365.714286h347.428571v-36.571429H256zM256 256h296.228571v-36.571429H256z"  horiz-adv-x="1024" />

    
    <glyph glyph-name="yejixinzeng" unicode="&#58911;" d="M784.457143-54.857143c-60.342857 0-107.885714 49.371429-107.885714 107.885714 0 60.342857 49.371429 109.714286 107.885714 109.714286 60.342857 0 109.714286-49.371429 109.714286-109.714286 0-58.514286-49.371429-107.885714-109.714286-107.885714zM784.457143 144.457143c49.371429 0 89.6-40.228571 89.6-89.6s-38.4-91.428571-89.6-91.428572-89.6 40.228571-89.6 89.6 40.228571 91.428571 89.6 91.428572m0 36.571428c-69.485714 0-126.171429-56.685714-126.171429-126.171428s56.685714-126.171429 126.171429-126.171429 126.171429 56.685714 126.171428 126.171429-54.857143 126.171429-126.171428 126.171428zM844.8 69.485714h-43.885714v43.885715c0 7.314286-7.314286 14.628571-14.628572 14.628571s-14.628571-7.314286-14.628571-14.628571v-43.885715h-43.885714c-7.314286 0-14.628571-7.314286-14.628572-14.628571s7.314286-14.628571 14.628572-14.628572h43.885714v-43.885714c0-7.314286 7.314286-14.628571 14.628571-14.628571s14.628571 7.314286 14.628572 14.628571v43.885714h43.885714c7.314286 0 14.628571 7.314286 14.628571 14.628572s-7.314286 14.628571-14.628571 14.628571zM126.171429 416.914286h91.428571v-248.685715h-91.428571zM303.542857 462.628571h91.428572v-292.571428h-91.428572zM574.171429 521.142857h-91.428572l-1.828571-351.085714h91.428571zM749.714286 221.257143V608.914286h-91.428572V182.857143c23.771429 20.114286 54.857143 34.742857 91.428572 38.4zM616.228571 87.771429H128V0h493.714286c-5.485714 16.457143-9.142857 34.742857-9.142857 53.028571 0 12.8 1.828571 23.771429 3.657142 34.742858zM128 682.057143V585.142857l444.342857 111.542857v-54.857143L749.714286 768l-177.371429 58.514286v-49.371429z"  horiz-adv-x="1024" />

    
    <glyph glyph-name="kehuxinzeng" unicode="&#58912;" d="M497.371429 588.8m-179.2 0a179.2 179.2 0 1 1 358.4 0 179.2 179.2 0 1 1-358.4 0ZM786.285714 107.885714m-128 0a128 128 0 1 1 256 0 128 128 0 1 1-256 0ZM786.285714 217.6c60.342857 0 109.714286-49.371429 109.714286-109.714286s-49.371429-109.714286-109.714286-109.714285-109.714286 49.371429-109.714285 109.714285 49.371429 109.714286 109.714285 109.714286m0 36.571429c-80.457143 0-146.285714-65.828571-146.285714-146.285715s65.828571-146.285714 146.285714-146.285714 146.285714 65.828571 146.285715 146.285714-65.828571 146.285714-146.285715 146.285715zM859.428571 128h-54.857142v54.857143c0 9.142857-9.142857 18.285714-18.285715 18.285714s-18.285714-9.142857-18.285714-18.285714v-54.857143h-54.857143c-9.142857 0-18.285714-9.142857-18.285714-18.285714s9.142857-18.285714 18.285714-18.285715h54.857143v-54.857142c0-9.142857 9.142857-18.285714 18.285714-18.285715s18.285714 9.142857 18.285715 18.285715v54.857142h54.857142c9.142857 0 18.285714 9.142857 18.285715 18.285715s-9.142857 18.285714-18.285715 18.285714zM135.314286-14.628571C144.457143 177.371429 303.542857 329.142857 497.371429 329.142857c64 0 126.171429-16.457143 181.028571-47.542857-53.028571-40.228571-85.942857-106.057143-85.942857-173.714286 0-43.885714 12.8-85.942857 36.571428-122.514285h-493.714285zM497.371429 310.857143c51.2 0 102.4-10.971429 148.114285-32.914286-45.714286-43.885714-71.314286-106.057143-71.314285-170.057143 0-36.571429 7.314286-71.314286 23.771428-104.228571H155.428571c18.285714 173.714286 164.571429 307.2 341.942858 307.2m0 36.571428C287.085714 347.428571 117.028571 177.371429 117.028571-32.914286h550.4c-34.742857 36.571429-56.685714 85.942857-56.685714 140.8 0 74.971429 40.228571 138.971429 102.4 173.714286-64 42.057143-137.142857 65.828571-215.771428 65.828571zM466.285714 281.6s0-1.828571 0 0l3.657143-31.085714c0-1.828571 1.828571-1.828571 1.828572-1.828572h1.828571v-1.828571l-29.257143-168.228572v-1.828571l43.885714-36.571429h3.657143l43.885715 36.571429v1.828571l-27.428572 168.228572v1.828571h1.828572c1.828571 0 1.828571 0 1.828571 1.828572l3.657143 31.085714v1.828571h-1.828572l-47.542857-1.828571z"  horiz-adv-x="1024" />

    
    <glyph glyph-name="xiaoxitixing" unicode="&#58913;" d="M437.028571 73.142857c0-36.571429 29.257143-67.657143 67.657143-67.657143 36.571429 0 67.657143 29.257143 67.657143 67.657143H640c0-74.971429-60.342857-135.314286-135.314286-135.314286-74.971429 0-135.314286 60.342857-135.314285 135.314286h67.657142zM219.428571 149.942857v31.085714h32.914286V502.857143C252.342857 623.542857 338.285714 725.942857 457.142857 749.714286l14.628572 3.657143V821.028571h64v-69.485714l16.457142-1.828571c118.857143-21.942857 204.8-126.171429 204.8-246.857143v-321.828572h32.914286v-31.085714H219.428571z m334.628572 98.742857H658.285714V537.6h-104.228571v-288.914286zM517.485714 802.742857V736.914286L548.571429 731.428571c109.714286-20.114286 188.342857-117.028571 188.342857-228.571428v-334.628572H270.628571V502.857143c0 111.542857 80.457143 208.457143 188.342858 228.571428l29.257142 5.485715V802.742857h29.257143m18.285715-572.342857H676.571429V555.885714h-140.8v-325.485714m18.285714 608.914286h-100.571429V768c-124.342857-23.771429-219.428571-133.485714-219.428571-265.142857v-303.542857H201.142857v-67.657143h607.085714v67.657143h-32.914285V502.857143c0 131.657143-95.085714 241.371429-219.428572 265.142857V839.314286h-1.828571z m18.285714-572.342857V519.314286H640v-252.342857h-67.657143z"  horiz-adv-x="1024" />

    
    <glyph glyph-name="zaishouchanpin" unicode="&#58914;" d="M96.914286 548.571429V212.114286 550.4v-1.828571zM504.685714-34.742857c-16.457143 0-32.914286 3.657143-47.542857 10.971428L170.057143 124.342857c-32.914286 18.285714-53.028571 51.2-54.857143 87.771429V550.4c0 36.571429 21.942857 71.314286 53.028571 85.942857L455.314286 786.285714c14.628571 7.314286 31.085714 10.971429 47.542857 10.971429s32.914286-3.657143 45.714286-10.971429l285.257142-146.285714c32.914286-16.457143 54.857143-51.2 54.857143-89.6v-336.457143c0-38.4-20.114286-73.142857-54.857143-89.6l-283.428571-146.285714c-14.628571-9.142857-29.257143-12.8-45.714286-12.8z m9.142857 424.228571v-404.114285L822.857143 146.285714c25.6 12.8 42.057143 40.228571 42.057143 69.485715V568.685714l-351.085715-179.2zM138.971429 215.771429c0-29.257143 16.457143-56.685714 43.885714-69.485715l307.2-159.085714v402.285714l-171.885714 87.771429v-153.6l-14.628572 7.314286c-5.485714 1.828571-5.485714 9.142857-5.485714 10.971428v146.285714l-157.257143 80.457143v-352.914285z m43.885714 402.285714c-5.485714-1.828571-12.8-7.314286-18.285714-10.971429l-18.285715-18.285714 354.742857-181.028571 360.228572 186.514285-25.6 16.457143-3.657143 1.828572c-3.657143 1.828571-7.314286 5.485714-10.971429 7.314285L537.6 768c-10.971429 7.314286-25.6 7.314286-34.742857 7.314286-10.971429 0-21.942857-3.657143-34.742857-9.142857L182.857143 618.057143zM502.857143 815.542857c-18.285714 0-38.4-3.657143-54.857143-12.8L162.742857 652.8c-38.4-18.285714-64-58.514286-64-102.4v-338.285714c0-43.885714 25.6-84.114286 64-104.228572l287.085714-148.114285c16.457143-9.142857 36.571429-12.8 54.857143-12.8 20.114286 0 36.571429 3.657143 54.857143 12.8l283.428572 146.285714c40.228571 20.114286 64 62.171429 64 106.057143V548.571429c0 45.714286-25.6 87.771429-64 106.057142l-285.257143 146.285715c-16.457143 10.971429-36.571429 14.628571-54.857143 14.628571z m0-385.828571l-323.657143 164.571428c3.657143 3.657143 7.314286 5.485714 12.8 7.314286L475.428571 749.714286c9.142857 3.657143 18.285714 7.314286 27.428572 7.314285s20.114286-1.828571 27.428571-5.485714l285.257143-146.285714c3.657143-1.828571 7.314286-3.657143 12.8-7.314286l-325.485714-168.228571z m29.257143-415.085715V378.514286l314.514285 160.914285v-321.828571c0-21.942857-12.8-43.885714-32.914285-54.857143l-281.6-148.114286z m-62.171429 1.828572l-279.771428 146.285714c-20.114286 10.971429-32.914286 31.085714-32.914286 54.857143V537.6l120.685714-62.171429v-135.314285c0-12.8 5.485714-21.942857 16.457143-27.428572l20.114286-10.971428c1.828571-1.828571 3.657143-1.828571 5.485714-1.828572 9.142857 0 14.628571 5.485714 14.628571 14.628572v128l135.314286-69.485715v-356.571428zM826.514286 596.114286c-3.657143 3.657143-7.314286 5.485714-12.8 7.314285L528.457143 749.714286c-7.314286 3.657143-18.285714 5.485714-27.428572 5.485714s-16.457143-1.828571-25.6-5.485714l-285.257142-148.114286c-3.657143-1.828571-9.142857-3.657143-12.8-7.314286l323.657142-164.571428 325.485715 166.4zM190.171429 162.742857l279.771428-146.285714V378.514286l-135.314286 69.485714v-128c0-9.142857-5.485714-14.628571-14.628571-14.628571-1.828571 0-3.657143 0-5.485714 1.828571l-20.114286 10.971429c-10.971429 3.657143-16.457143 14.628571-16.457143 27.428571v135.314286l-120.685714 62.171428v-321.828571c0-27.428571 12.8-49.371429 32.914286-58.514286zM532.114286 14.628571l281.6 146.285715c20.114286 10.971429 32.914286 31.085714 32.914285 54.857143V537.6l-314.514285-160.914286v-362.057143z"  horiz-adv-x="1024" />

    
    <glyph glyph-name="zhishiku" unicode="&#58915;" d="M499.2 5.485714L140.8 137.142857c-7.314286 1.828571-12.8 9.142857-12.8 16.457143V641.828571c0 10.971429 9.142857 18.285714 18.285714 18.285715 1.828571 0 3.657143 0 7.314286-1.828572l58.514286-23.771428V729.6c0 10.971429 9.142857 18.285714 18.285714 18.285714 1.828571 0 5.485714 0 7.314286-1.828571l281.6-131.657143 281.6 131.657143c1.828571 1.828571 5.485714 1.828571 7.314285 1.828571 9.142857 0 18.285714-7.314286 18.285715-18.285714v-93.257143l58.514285 23.771429c1.828571 0 3.657143 1.828571 7.314286 1.828571 9.142857 0 18.285714-7.314286 18.285714-18.285714v-488.228572c0-7.314286-5.485714-14.628571-12.8-16.457142l-358.4-131.657143h-40.228571z m36.571429 581.485715v-548.571429l259.657142 124.342857v548.571429l-259.657142-124.342857z m-292.571429-424.228572l259.657143-124.342857v548.571429l-259.657143 124.342857v-548.571429z m585.142857 440.685714v-460.8l51.2 18.285715V621.714286l-51.2-18.285715zM159.085714 159.085714l51.2-18.285714V603.428571l-51.2 18.285715v-462.628572zM810.057143 148.114286v-25.6l-232.228572-84.114286 215.771429 102.4 16.457143 7.314286m-579.657143 0l16.457143-7.314286 215.771428-102.4-232.228571 84.114286v25.6m0 618.057143c-20.114286 0-36.571429-14.628571-36.571429-36.571429v-67.657143l-32.914285 12.8c-5.485714 1.828571-10.971429 3.657143-14.628572 3.657143-20.114286 0-36.571429-16.457143-36.571428-36.571429v-488.228571c0-14.628571 9.142857-29.257143 23.771428-34.742857l362.057143-131.657143h47.542857l362.057143 131.657143c14.628571 5.485714 23.771429 18.285714 23.771429 34.742857V641.828571c0 20.114286-16.457143 36.571429-36.571429 36.571429-3.657143 0-9.142857 0-12.8-1.828571l-32.914286-12.8V729.6c0 21.942857-16.457143 36.571429-36.571428 36.571429-5.485714 0-10.971429-1.828571-14.628572-3.657143l-274.285714-128-274.285714 128c-7.314286 1.828571-12.8 3.657143-16.457143 3.657143z m323.657143-698.514286V576l223.085714 106.057143v-508.342857l-223.085714-106.057143z m-69.485714 0l-223.085715 106.057143V682.057143l223.085715-106.057143v-508.342857z m362.057142 98.742857V588.8l14.628572 5.485714v-422.4l-14.628572-5.485714z m-652.8 0l-14.628571 5.485714V594.285714l14.628571-5.485714v-422.4zM193.828571 588.8l-16.457142 5.485714v-422.4l16.457142-5.485714zM484.571429 576l-223.085715 106.057143v-508.342857l223.085715-106.057143V576z m-47.542858-305.371429v-1.828571l-135.314285 64v74.971429l137.142857-64v-73.142858z m0 153.6v-1.828571l-135.314285 64v74.971429l137.142857-64v-73.142858zM777.142857 682.057143l-223.085714-106.057143v-508.342857l223.085714 106.057143V682.057143z m-42.057143-349.257143l-135.314285-64v74.971429l137.142857 64v-74.971429z m0 153.6L599.771429 420.571429v74.971428l137.142857 64v-73.142857zM861.257143 594.285714l-14.628572-5.485714v-422.4l14.628572 5.485714zM618.057143 484.571429l98.742857 47.542857v-34.742857l-98.742857-47.542858zM735.085714 561.371429l-135.314285-64V420.571429l135.314285 65.828571v74.971429zM618.057143 332.8l98.742857 47.542857v-36.571428l-98.742857-47.542858zM735.085714 407.771429l-135.314285-64v-74.971429l135.314285 64v74.971429zM320 497.371429v34.742857l98.742857-47.542857v-34.742858zM301.714286 561.371429v-74.971429l135.314285-64v74.971429l-135.314285 64zM320 343.771429v36.571428l98.742857-47.542857v-36.571429zM301.714286 409.6v-76.8l135.314285-64v74.971429l-135.314285 65.828571z"  horiz-adv-x="1024" />

    


  </font>
</defs>
</svg>
